HIERARCHY
ROOT RootJoint
{
    OFFSET   0.000000   0.000000   0.000000
    CHANNELS 6 Xposition Yposition Zposition Xrotation Yrotation Zrotation
    JOINT pelvis_lowerback
    {
        OFFSET   0.000000   0.093605   0.000000
        CHANNELS 3 Xrotation Yrotation Zrotation
        JOINT lowerback_torso
        {
            OFFSET   0.000000   0.100000   0.000000
            CHANNELS 3 Xrotation Yrotation Zrotation
            JOINT torso_head
            {
                OFFSET   0.000000   0.282350   0.000000
                CHANNELS 3 Xrotation Yrotation Zrotation
                End Site
                {
                    OFFSET   0.000000   0.192650   0.000000
                }
            }
            JOINT rTorso_Clavicle
            {
                OFFSET  -0.001000   0.157500   0.000000
                CHANNELS 3 Xrotation Yrotation Zrotation
                JOINT rShoulder
                {
                    OFFSET  -0.117647   0.000000   0.000000
                    CHANNELS 3 Xrotation Yrotation Zrotation
                    JOINT rElbow
                    {
                        OFFSET  -0.245000   0.000000   0.000000
                        CHANNELS 3 Xrotation Yrotation Zrotation
                        JOINT rWrist
                        {
                            OFFSET  -0.240000   0.000000   0.000000
                            CHANNELS 3 Xrotation Yrotation Zrotation
                            End Site
                            {
                                OFFSET  -0.116353  -0.002500   0.000000
                            }
                        }
                    }
                }
            }
            JOINT lTorso_Clavicle
            {
                OFFSET   0.001000   0.157500   0.000000
                CHANNELS 3 Xrotation Yrotation Zrotation
                JOINT lShoulder
                {
                    OFFSET   0.117647   0.000000   0.000000
                    CHANNELS 3 Xrotation Yrotation Zrotation
                    JOINT lElbow
                    {
                        OFFSET   0.245000   0.000000   0.000000
                        CHANNELS 3 Xrotation Yrotation Zrotation
                        JOINT lWrist
                        {
                            OFFSET   0.240000   0.000000   0.000000
                            CHANNELS 3 Xrotation Yrotation Zrotation
                            End Site
                            {
                                OFFSET   0.116353  -0.002500   0.000000
                            }
                        }
                    }
                }
            }
        }
    }
    JOINT rHip
    {
        OFFSET  -0.100000  -0.051395   0.000000
        CHANNELS 3 Xrotation Yrotation Zrotation
        JOINT rKnee
        {
            OFFSET   0.000000  -0.410000   0.000000
            CHANNELS 3 Xrotation Yrotation Zrotation
            JOINT rAnkle
            {
                OFFSET   0.000000  -0.390000   0.000000
                CHANNELS 3 Xrotation Yrotation Zrotation
                JOINT rToeJoint
                {
                    OFFSET   0.000000  -0.050000   0.130000
                    CHANNELS 3 Xrotation Yrotation Zrotation
                    End Site
                    {
                        OFFSET  -0.010000   0.002000   0.060000
                    }
                }
            }
        }
    }
    JOINT lHip
    {
        OFFSET   0.100000  -0.051395   0.000000
        CHANNELS 3 Xrotation Yrotation Zrotation
        JOINT lKnee
        {
            OFFSET   0.000000  -0.410000   0.000000
            CHANNELS 3 Xrotation Yrotation Zrotation
            JOINT lAnkle
            {
                OFFSET   0.000000  -0.390000   0.000000
                CHANNELS 3 Xrotation Yrotation Zrotation
                JOINT lToeJoint
                {
                    OFFSET   0.000000  -0.050000   0.130000
                    CHANNELS 3 Xrotation Yrotation Zrotation
                    End Site
                    {
                        OFFSET   0.010000   0.002000   0.060000
                    }
                }
            }
        }
    }
}
MOTION
Frames: 15
Frame Time:   0.008333
 -2.395858   0.648741   4.147545  25.532756   9.608557  -1.873711  31.114072   1.034998  -1.757669  11.150409  -1.636650  -3.126080 -17.390721   3.224109  -3.067256  -9.474224  21.507383  14.828336 -15.700395  15.087964  20.129928  -0.296709  41.503596   0.119170   2.626097   1.010187  -1.303743  -9.487128 -20.584025 -12.012355 -17.546147 -20.020116 -18.040977  -0.235323 -37.850153  -0.121362  -4.888380  -5.173966   2.522288 -51.713613  -3.460731  -5.752046  98.566308  -0.001607   0.001644 -47.028633  -4.889663   2.218648 -39.164907   0.002815   0.001796 -83.071380   1.530647   3.321523  93.072330  -0.000703  -0.002039 -34.479702   2.484537  -0.634014  -5.121296   0.002325  -0.000273
 -2.394236   0.653168   4.157283  25.270916  10.161473  -2.025461  30.535192   0.916301  -1.663956  10.636655  -1.760155  -3.186642 -16.741025   3.027731  -3.088101 -10.342608  22.137758  13.299929 -17.221131  15.580842  18.609429  -0.332064  43.191941   0.132009   2.521904   0.906965  -1.100382 -10.118055 -21.378264 -10.521370 -19.386406 -21.393593 -16.812134  -0.274191 -39.592217  -0.139117  -5.012924  -5.232255   2.357827 -50.376086  -3.775779  -5.905129  97.856491  -0.003145   0.001067 -45.191366  -5.000176   2.828074 -42.188890   0.007552   0.005072 -81.925167   1.502569   3.023301  93.013459  -0.000662  -0.001750 -34.119950   2.502612  -0.933192  -5.146637   0.001804  -0.000293
 -2.392470   0.658804   4.167836  25.049127  10.662906  -2.127628  29.877034   0.821514  -1.613536  10.146156  -1.877946  -3.281384 -16.042706   2.839558  -3.113030 -11.164766  22.635752  11.661317 -18.656873  16.049005  17.034894  -0.358315  44.775325   0.141171   2.432244   0.885524  -1.078149 -10.720282 -22.036688  -8.945086 -21.112430 -22.703130 -15.559794  -0.305054 -41.242198  -0.151915  -5.122015  -5.484060   2.346486 -49.007029  -4.086170  -6.052310  96.915210  -0.004520   0.000573 -43.021069  -5.132086   3.369974 -45.496227   0.008052   0.009515 -80.665802   1.477763   2.726573  92.787923  -0.000814  -0.001774 -33.513491   2.501522  -1.163248  -5.152355   0.001436  -0.000244
 -2.390388   0.665477   4.179267  24.931013  11.023919  -2.207733  29.095578   0.774129  -1.600039   9.578989  -1.964799  -3.418076 -15.373849   2.664343  -3.142948 -11.927103  23.045540  10.008258 -19.999569  16.495309  15.482167  -0.375195  46.247754   0.148383   2.357913   0.842597  -1.234981 -11.265577 -22.572440  -7.370796 -22.710794 -23.918928 -14.338101  -0.326077 -42.776672  -0.159961  -5.214491  -5.748680   2.511283 -47.705827  -4.398303  -6.190186  95.945049  -0.004672   0.000726 -41.126507  -5.283079   3.893982 -45.397021   0.006434   0.007357 -79.312604   1.400006   2.464998  92.371626  -0.000761  -0.001793 -32.889351   2.453256  -1.338784  -7.243272  -0.000262  -0.001877
 -2.387933   0.672758   4.191669  24.896233  11.266714  -2.253872  28.166060   0.761520  -1.620369   8.926604  -2.020413  -3.581473 -14.744336   2.500214  -3.173057 -12.622981  23.387361   8.387550 -21.247926  16.923358  13.990609  -0.384593  47.620276   0.154635   2.292206   0.777726  -1.480860 -11.747974 -23.002795  -5.835738 -24.183695 -25.042084 -13.173182  -0.338777 -44.201151  -0.164413  -5.296167  -5.974533   2.769148 -46.412385  -4.693712  -6.338805  94.800008  -0.004103   0.001599 -39.083956  -5.409772   4.356753 -45.317649   0.005218   0.005654 -77.894524   1.303343   2.222664  91.846931  -0.000349  -0.001525 -32.234521   2.402822  -1.479892  -9.473076  -0.000661  -0.001067
 -2.385077   0.680342   4.205056  24.939675  11.400056  -2.255136  27.081105   0.783771  -1.674463   8.181351  -2.042998  -3.766686 -14.159721   2.346456  -3.201687 -13.256599  23.678795   6.822385 -22.406570  17.338487  12.576053  -0.388334  48.903043   0.160332   2.230828   0.710124  -1.762605 -12.175153 -23.346076  -4.358042 -25.540722 -26.080901 -12.072901  -0.344920 -45.524345  -0.166155  -5.371004  -6.158675   3.072578 -45.117017  -4.959534  -6.512463  93.506372  -0.002873   0.003241 -36.967435  -5.520092   4.768127 -45.254144   0.004287   0.004313 -76.403735   1.185256   1.991145  91.310860   0.000453  -0.000939 -31.547660   2.347478  -1.588268 -11.992868   0.000213   0.002448
 -2.381835   0.687960   4.219406  25.042368  11.439552  -2.222683  25.855154   0.842052  -1.744718   7.344982  -2.029277  -3.962052 -13.620390   2.202688  -3.227183 -13.836502  23.936309   5.319066 -23.482577  17.746991  11.241706  -0.387978  50.104392   0.165600   2.171615   0.655361  -2.054383 -12.559182 -23.618698  -2.942205 -26.793414 -27.044959 -11.035479  -0.346018 -46.754467  -0.165768  -5.441209  -6.306439   3.402540 -43.805179  -5.201405  -6.705049  92.098984  -0.001201   0.005535 -34.810068  -5.618818   5.134014 -45.203335   0.003559   0.003266 -74.880275   1.070942   1.770373  90.746808   0.001408  -0.000106 -30.842478   2.294436  -1.678196 -14.659716   0.001013   0.007518
 -2.378875   0.697905   4.234618  24.945027  11.789458  -2.080057  24.874225   0.766756  -1.800982   6.780221  -2.077228  -4.147049 -12.533194   1.817255  -3.200075 -14.173471  23.894432   3.391499 -24.374440  17.973590  10.126740  -0.368284  51.111417   0.155610   2.057624   0.952310  -2.400122 -12.805159 -23.819182  -1.265743 -28.125648 -27.837781 -10.094265  -0.320819 -47.559355  -0.151979  -5.489786  -6.834171   3.676931 -42.283418  -5.268796  -6.995984  90.514698  -0.004845   0.005795 -31.839544  -5.427172   5.492411 -45.162691   0.002883   0.002675 -73.183520   0.924467   1.326549  89.860278   0.002772   0.000314 -28.805136   1.984525  -2.012456 -18.821845  -0.006052   0.018162
 -2.376068   0.709163   4.250758  24.856831  12.191954  -1.922134  23.852452   0.688315  -1.874614   6.314637  -2.147098  -4.335275 -11.423880   1.448574  -3.168410 -14.439364  23.672325   1.529181 -25.170967  18.092645   9.036472  -0.345745  52.031276   0.144303   1.955164   1.175327  -2.617949 -13.024108 -23.843255   0.348173 -29.347683 -28.502639  -9.164416  -0.295070 -48.281762  -0.137942  -5.532011  -7.220244   3.965655 -40.720142  -5.282232  -7.235009  88.702342  -0.010006   0.004539 -28.407833  -5.189167   5.787890 -45.130174   0.002333   0.002243 -71.324778   0.785545   0.866777  88.664023   0.004127   0.000448 -26.484775   1.629003  -2.243902 -23.205858  -0.010317   0.026587
 -2.373287   0.721149   4.267772  24.800967  12.564062  -1.769540  22.753591   0.635951  -1.961093   5.844925  -2.201525  -4.532648 -10.362670   1.104802  -3.135091 -14.669051  23.345376  -0.223180 -25.896019  18.140579   7.993659  -0.322914  52.872899   0.133961   1.859202   1.294068  -2.772817 -13.219333 -23.736491   1.858990 -30.468525 -29.059127  -8.272170  -0.270309 -48.936968  -0.124802  -5.572078  -7.482346   4.259161 -39.195287  -5.280815  -7.427982  86.824260  -0.014405   0.002790 -24.827963  -4.934763   6.046431 -43.768933   0.003793   0.005740 -69.282166   0.613402   0.447969  87.281213   0.005732   0.000534 -24.074486   1.291516  -2.394626 -27.769338  -0.011699   0.033292
 -2.370463   0.733413   4.285602  24.744565  12.890970  -1.638435  21.590223   0.613797  -2.040936   5.342778  -2.229794  -4.727758  -9.364602   0.784812  -3.098151 -14.881522  22.967253  -1.868155 -26.563574  18.149817   7.003509  -0.301092  53.646125   0.125185   1.767165   1.330584  -2.891232 -13.401074 -23.544121   3.266724 -31.500084 -29.532022  -7.423319  -0.247082 -49.532132  -0.112854  -5.612566  -7.639220   4.550820 -37.706629  -5.291250  -7.578235  84.952020  -0.017424   0.001151 -21.176796  -4.663237   6.269566 -41.057638   0.007853   0.011948 -67.118139   0.424742   0.085552  85.703629   0.007155   0.000713 -21.675102   0.988577  -2.496966 -32.193411  -0.012601   0.036790
 -2.367501   0.745467   4.304233  24.674635  13.120052  -1.511256  20.344186   0.637653  -2.133227   4.790033  -2.219064  -4.928572  -8.430503   0.487391  -3.057290 -15.083815  22.574638  -3.413819 -27.181737  18.144860   6.069446  -0.281185  54.361741   0.118158   1.678070   1.319934  -2.977166 -13.576053 -23.294084   4.579803 -32.451714 -29.940538  -6.617738  -0.225863 -50.074685  -0.102329  -5.654524  -7.712719   4.829209 -36.256795  -5.353729  -7.647819  83.132645  -0.017649  -0.000442 -17.652037  -4.331113   6.454499 -36.868330   0.011621   0.018311 -64.785707   0.201405  -0.218361  83.902708   0.009245   0.001734 -19.231634   0.709918  -2.523757 -37.739137  -0.013061   0.045241
 -2.364361   0.757277   4.323583  24.553084  13.279269  -1.360246  19.073638   0.687266  -2.237914   4.192288  -2.182029  -5.134567  -7.564786   0.210612  -3.013681 -15.286161  22.188993  -4.869620 -27.760845  18.139538   5.185094  -0.263038  55.026209   0.112431   1.592228   1.282976  -3.065509 -13.755374 -23.017745   5.807332 -33.336956 -30.305004  -5.851722  -0.206570 -50.571330  -0.093092  -5.697159  -7.727237   5.117668 -34.838498  -5.446067  -7.677276  81.424194  -0.016064  -0.001717 -14.348524  -4.003888   6.607139 -32.791624   0.013443   0.019948 -62.409953  -0.038290  -0.490472  82.127182   0.011304   0.003325 -16.982040   0.467435  -2.552266 -41.619408  -0.014383   0.047705
 -2.361522   0.770335   4.343611  24.454533  13.515876  -1.547181  17.556316   0.947459  -1.832774   3.956243  -2.230715  -5.434860  -6.127253  -0.131898  -2.990070 -14.775431  21.565372  -6.895923 -27.739031  17.993586   4.092407  -0.211325  55.043478   0.090380   1.435849   1.725070  -3.641968 -13.564330 -22.574416   7.123470 -33.989676 -30.619574  -4.880437  -0.167347 -50.616041  -0.075314  -5.663078  -8.180937   5.623797 -33.255306  -5.581048  -7.178892  79.163917  -0.018837  -0.009293 -11.748332  -3.815882   6.748201 -28.895629   0.010662   0.030585 -59.957210  -0.527524  -0.509312  80.028871   0.012241   0.002237 -14.367877   0.106309  -2.786494 -45.705886  -0.021342   0.042257
 -2.358854   0.784645   4.363945  24.345197  13.842705  -1.731726  16.119928   1.164405  -1.404632   3.798019  -2.300517  -5.692920  -4.727963  -0.454020  -2.952969 -14.282532  20.805073  -8.788856 -27.670677  17.738614   3.046839  -0.167639  55.002038   0.072267   1.299813   1.904622  -3.874247 -13.396021 -22.013305   8.325314 -34.569092 -30.820781  -3.943713  -0.134042 -50.618405  -0.060415  -5.628762  -8.448374   6.031228 -31.739400  -5.691658  -6.617624  76.897505  -0.021515  -0.018083  -9.331746  -3.635070   6.873040 -25.320712   0.008550   0.042486 -57.495345  -0.963770  -0.504514  77.836624   0.011496  -0.000151 -11.997207  -0.234167  -3.037340 -45.564784  -0.016953   0.033786
